<?xml version="1.0" standalone="no"?>
<!DOCTYPE svg PUBLIC "-//W3C//DTD SVG 20010904//EN"
 "http://www.w3.org/TR/2001/REC-SVG-20010904/DTD/svg10.dtd">
<svg version="1.0" xmlns="http://www.w3.org/2000/svg"
 width="1185.000000pt" height="1280.000000pt" viewBox="0 0 1185.000000 1280.000000"
 preserveAspectRatio="xMidYMid meet">
<metadata>
Created by potrace 1.15, written by Peter Selinger 2001-2017
</metadata>
<g transform="translate(0.000000,1280.000000) scale(0.100000,-0.100000)"
fill="#000000" stroke="none">
<path d="M1765 12789 c-535 -6 -630 -12 -820 -50 -391 -78 -648 -267 -797
-586 -143 -305 -127 -626 48 -975 93 -186 -39 11 1574 -2348 427 -624 844
-1229 927 -1345 440 -616 663 -978 663 -1075 0 -18 -2588 -3865 -2885 -4290
-190 -272 -261 -384 -334 -530 -156 -314 -181 -590 -79 -880 139 -393 408
-592 901 -666 123 -18 1003 -38 1702 -38 474 1 651 11 885 50 304 52 548 172
770 381 130 122 237 260 438 563 97 146 299 438 450 649 382 534 569 817 666
1009 14 29 30 52 34 52 4 0 35 -33 68 -72 155 -187 321 -430 649 -953 419
-668 643 -975 884 -1215 240 -238 419 -337 724 -400 314 -65 558 -73 1862 -58
705 8 825 17 1040 80 364 106 633 412 700 797 46 259 -24 532 -221 868 -72
123 -242 376 -1376 2043 -996 1465 -1026 1509 -1370 1967 -245 327 -308 425
-345 533 -26 77 -28 125 -8 203 31 121 80 200 415 667 135 190 352 500 482
690 129 190 349 512 489 715 140 204 357 521 482 705 126 184 383 560 573 835
534 776 615 899 687 1046 171 344 200 618 97 900 -131 360 -400 583 -810 673
-194 43 -264 47 -1060 58 -1470 21 -1799 -21 -2186 -281 -241 -161 -376 -318
-734 -856 -151 -226 -994 -1478 -1006 -1493 -4 -6 -75 76 -162 187 -110 140
-277 388 -512 761 -435 688 -632 955 -892 1205 -360 348 -622 442 -1323 475
-223 10 -439 10 -1290 -1z m-955 -742 c0 -2 -10 -12 -22 -23 l-23 -19 19 23
c18 21 26 27 26 19z m367 -1074 c-2 -27 -3 -5 -3 47 0 52 1 74 3 48 2 -27 2
-69 0 -95z"/>
</g>
</svg>
